<?xml version="1.0" standalone="no"?>
<!DOCTYPE svg PUBLIC "-//W3C//DTD SVG 20010904//EN"
 "http://www.w3.org/TR/2001/REC-SVG-20010904/DTD/svg10.dtd">
<svg version="1.0" xmlns="http://www.w3.org/2000/svg"
 width="932.000000pt" height="932.000000pt" viewBox="0 0 932.000000 932.000000"
 preserveAspectRatio="xMidYMid meet">
<metadata>
Created by potrace 1.14, written by Peter Selinger 2001-2017
</metadata>
<g transform="translate(0.000000,932.000000) scale(0.100000,-0.100000)"
fill="#000000" stroke="none">
<path d="M3794 5470 c-60 -12 -93 -28 -269 -130 -88 -51 -181 -105 -206 -119
-67 -38 -331 -190 -349 -201 -17 -11 -412 -239 -477 -276 -24 -13 -64 -36 -90
-50 -148 -82 -221 -156 -257 -255 -36 -102 -24 -234 29 -324 46 -79 102 -121
353 -266 136 -78 330 -191 432 -249 102 -59 302 -174 445 -257 305 -176 327
-188 380 -198 136 -24 260 13 353 106 118 118 147 293 73 443 -40 82 -97 137
-204 197 -49 28 -134 77 -189 110 -55 32 -101 59 -103 59 -1 0 -90 51 -197
113 -107 62 -202 117 -213 120 -11 5 -15 11 -9 16 5 5 155 93 334 196 179 104
356 206 393 227 87 50 127 86 167 148 114 178 66 410 -109 530 -78 54 -193 78
-287 60z"/>
<path d="M5138 5470 c-111 -21 -225 -111 -274 -216 -27 -60 -34 -91 -34 -164
-1 -71 6 -104 34 -165 44 -95 100 -142 301 -255 22 -13 54 -31 70 -41 17 -11
37 -22 45 -26 8 -4 49 -27 90 -51 75 -45 108 -64 178 -103 207 -117 243 -141
225 -153 -10 -7 -193 -113 -407 -237 -225 -130 -404 -240 -426 -261 -207 -207
-115 -561 166 -644 119 -35 213 -17 356 66 40 23 93 54 118 68 25 14 200 115
390 225 190 110 363 210 385 223 216 122 408 235 446 262 156 112 200 325 103
502 -47 86 -85 114 -381 281 -21 12 -105 61 -188 109 -132 77 -549 318 -645
372 -19 11 -72 42 -118 69 -45 27 -85 49 -87 49 -3 0 -27 13 -53 30 -27 16
-68 37 -91 45 -50 17 -151 25 -203 15z"/>
</g>
</svg>
